<svg id="svg" xmlns="http://www.w3.org/2000/svg" xmlns:xlink="http://www.w3.org/1999/xlink" width="400" height="334.59119496855345" viewBox="0, 0, 400,334.59119496855345" version="1.1"><g id="svgg"><path id="path0" d="M91.046 1.507 C 89.665 1.746,87.371 2.266,85.947 2.663 C 84.524 3.060,81.812 3.512,79.922 3.668 C 77.319 3.882,75.863 4.203,73.919 4.988 C 72.508 5.558,70.851 6.026,70.237 6.027 C 68.646 6.030,66.697 6.629,65.303 7.545 C 64.641 7.979,63.164 8.484,62.019 8.666 C 60.874 8.848,59.293 9.370,58.504 9.827 C 57.716 10.283,56.393 10.832,55.565 11.047 C 54.736 11.262,53.381 11.862,52.552 12.382 C 51.724 12.901,50.200 13.497,49.167 13.706 C 48.134 13.916,46.791 14.454,46.184 14.901 C 45.577 15.349,44.540 15.887,43.879 16.097 C 43.218 16.307,41.994 16.909,41.157 17.435 C 40.321 17.960,39.018 18.609,38.261 18.876 C 37.504 19.143,36.306 19.739,35.598 20.200 C 34.889 20.661,33.649 21.211,32.842 21.423 C 32.035 21.634,30.826 22.170,30.156 22.613 C 29.486 23.057,28.145 23.570,27.175 23.754 C 26.205 23.938,24.758 24.471,23.959 24.940 C 23.160 25.408,21.321 26.014,19.872 26.286 C 18.424 26.559,16.346 27.178,15.255 27.662 C 13.671 28.365,12.459 28.599,9.233 28.823 C 4.543 29.149,3.739 29.297,1.590 30.230 L 0.000 30.920 0.000 47.929 C 0.000 62.201,0.075 64.937,0.464 64.937 C 0.719 64.937,1.359 65.162,1.886 65.437 C 3.137 66.090,4.005 66.071,8.666 65.291 C 10.803 64.933,14.360 64.491,16.569 64.308 C 19.670 64.051,21.036 63.775,22.562 63.099 C 23.727 62.582,25.716 62.078,27.411 61.871 C 29.353 61.634,30.887 61.215,32.145 60.580 C 33.169 60.063,34.888 59.478,35.966 59.278 C 37.044 59.079,38.562 58.544,39.339 58.088 C 40.115 57.633,41.486 57.096,42.384 56.895 C 43.282 56.694,44.695 56.102,45.523 55.580 C 46.351 55.057,47.853 54.458,48.860 54.248 C 49.867 54.038,51.373 53.438,52.207 52.913 C 53.041 52.389,54.279 51.783,54.958 51.567 C 55.637 51.352,56.569 50.879,57.028 50.518 C 57.488 50.156,58.508 49.633,59.294 49.356 C 60.081 49.078,61.409 48.416,62.245 47.885 C 63.081 47.353,64.442 46.740,65.269 46.521 C 66.096 46.302,67.197 45.821,67.716 45.451 C 68.235 45.082,69.508 44.558,70.546 44.287 C 71.583 44.016,73.154 43.428,74.037 42.981 C 74.919 42.534,76.660 41.953,77.904 41.691 C 79.149 41.428,81.034 40.816,82.094 40.330 C 83.453 39.707,84.963 39.358,87.220 39.144 C 88.980 38.978,90.540 38.767,90.688 38.676 C 91.357 38.262,99.829 37.889,102.594 38.151 C 112.388 39.080,115.083 39.501,117.364 40.459 C 118.630 40.991,120.418 41.530,121.339 41.656 C 122.259 41.783,123.866 42.324,124.908 42.860 C 125.951 43.395,127.533 43.995,128.423 44.192 C 129.313 44.390,130.585 44.908,131.249 45.345 C 131.912 45.781,133.193 46.362,134.094 46.636 C 134.995 46.910,138.727 48.650,142.387 50.502 C 146.047 52.354,149.868 54.109,150.877 54.403 C 151.886 54.696,153.260 55.290,153.929 55.722 C 154.599 56.154,155.674 56.610,156.318 56.735 C 156.962 56.860,158.327 57.389,159.350 57.911 C 160.373 58.432,162.170 59.033,163.343 59.246 C 164.517 59.459,166.315 60.055,167.341 60.570 C 168.526 61.167,170.207 61.641,171.957 61.875 C 173.471 62.077,175.278 62.487,175.974 62.786 C 178.243 63.762,179.197 63.971,182.771 64.278 C 184.709 64.445,188.174 64.876,190.470 65.237 C 197.774 66.384,199.690 66.414,206.192 65.477 C 209.414 65.012,213.880 64.484,216.115 64.302 C 219.186 64.052,220.680 63.761,222.221 63.112 C 223.343 62.640,225.430 62.094,226.859 61.898 C 228.611 61.659,230.027 61.224,231.210 60.562 C 232.253 59.978,233.826 59.458,235.090 59.279 C 236.354 59.100,237.950 58.572,239.027 57.977 C 240.022 57.427,241.429 56.873,242.153 56.746 C 242.877 56.619,244.459 56.020,245.668 55.415 C 246.877 54.809,248.243 54.204,248.703 54.069 C 249.163 53.934,250.089 53.453,250.760 53.000 C 251.430 52.547,252.736 51.976,253.662 51.732 C 254.587 51.488,255.846 50.909,256.459 50.445 C 257.072 49.981,258.176 49.440,258.912 49.243 C 259.649 49.046,260.789 48.518,261.445 48.070 C 262.102 47.622,263.241 47.093,263.976 46.896 C 264.710 46.698,265.980 46.095,266.798 45.556 C 267.618 45.016,269.138 44.420,270.187 44.228 C 271.233 44.037,272.890 43.433,273.869 42.887 C 274.975 42.270,276.409 41.803,277.657 41.656 C 278.802 41.521,280.518 40.991,281.650 40.423 C 283.261 39.615,284.300 39.370,287.173 39.124 C 289.119 38.957,291.615 38.646,292.720 38.432 C 295.321 37.930,303.527 37.933,306.113 38.437 C 307.220 38.653,309.705 38.979,311.636 39.162 C 314.310 39.415,315.545 39.701,316.820 40.363 C 317.741 40.841,319.595 41.443,320.942 41.702 C 322.289 41.961,324.021 42.538,324.791 42.984 C 325.562 43.430,326.870 43.969,327.699 44.183 C 328.527 44.397,329.958 44.989,330.879 45.500 C 331.799 46.011,333.155 46.620,333.891 46.853 C 334.628 47.087,335.715 47.570,336.307 47.927 C 336.900 48.285,338.290 48.932,339.397 49.366 C 340.504 49.799,341.836 50.458,342.357 50.829 C 342.878 51.200,343.747 51.607,344.288 51.733 C 344.829 51.859,346.176 52.451,347.280 53.049 C 348.385 53.646,349.715 54.237,350.236 54.361 C 350.757 54.485,351.760 54.968,352.464 55.434 C 353.168 55.900,354.624 56.508,355.701 56.786 C 356.777 57.063,358.302 57.664,359.090 58.121 C 359.878 58.579,361.407 59.095,362.488 59.269 C 363.568 59.443,365.408 60.032,366.577 60.577 C 367.746 61.123,369.607 61.670,370.711 61.793 C 371.816 61.916,374.351 62.523,376.345 63.142 C 378.339 63.761,380.523 64.269,381.199 64.271 C 381.874 64.272,384.159 64.501,386.276 64.779 C 398.812 66.423,397.714 68.125,397.586 47.261 C 397.466 27.817,398.135 29.434,389.958 28.819 C 386.580 28.564,385.291 28.311,383.264 27.503 C 381.883 26.952,379.849 26.394,378.745 26.262 C 377.476 26.111,375.948 25.608,374.594 24.895 C 373.416 24.274,372.206 23.766,371.907 23.766 C 371.607 23.766,370.312 23.263,369.028 22.648 C 367.745 22.033,366.092 21.332,365.356 21.090 C 364.619 20.848,363.490 20.320,362.845 19.916 C 362.201 19.513,361.071 18.991,360.335 18.758 C 359.598 18.524,358.318 17.916,357.490 17.406 C 356.661 16.896,355.456 16.382,354.812 16.264 C 354.167 16.147,352.819 15.527,351.815 14.887 C 350.811 14.247,349.771 13.724,349.504 13.724 C 349.237 13.724,348.100 13.214,346.978 12.591 C 345.855 11.968,344.410 11.351,343.766 11.220 C 343.121 11.089,341.827 10.557,340.889 10.037 C 339.951 9.516,338.334 8.934,337.295 8.742 C 336.256 8.550,334.462 7.943,333.309 7.395 C 332.058 6.799,330.196 6.260,328.688 6.057 C 327.299 5.869,325.293 5.318,324.231 4.832 C 322.737 4.148,321.419 3.873,318.425 3.620 C 315.743 3.394,313.562 2.976,311.334 2.262 C 308.258 1.276,307.811 1.225,301.109 1.083 C 293.778 0.928,292.546 1.063,286.360 2.698 C 285.071 3.039,282.429 3.460,280.489 3.633 C 277.934 3.862,276.365 4.200,274.799 4.861 C 273.609 5.362,271.526 5.911,270.170 6.081 C 268.756 6.257,267.008 6.741,266.073 7.215 C 265.175 7.670,263.448 8.272,262.234 8.554 C 261.021 8.835,259.475 9.423,258.800 9.860 C 258.125 10.297,256.634 10.890,255.487 11.177 C 254.339 11.464,252.833 12.072,252.139 12.528 C 251.446 12.983,250.239 13.498,249.458 13.671 C 248.676 13.845,247.321 14.440,246.445 14.993 C 245.570 15.546,244.369 16.101,243.777 16.225 C 243.185 16.349,242.133 16.835,241.441 17.305 C 240.748 17.774,239.576 18.372,238.836 18.632 C 238.095 18.893,236.962 19.453,236.318 19.877 C 235.674 20.301,234.544 20.847,233.808 21.089 C 233.071 21.331,231.418 22.033,230.135 22.648 C 228.851 23.263,227.481 23.766,227.089 23.766 C 226.698 23.766,225.413 24.274,224.235 24.895 C 222.923 25.585,221.339 26.115,220.151 26.260 C 219.083 26.390,216.748 26.995,214.962 27.606 C 208.173 29.927,188.652 29.868,183.210 27.511 C 181.951 26.965,180.020 26.412,178.920 26.280 C 177.790 26.146,176.072 25.614,174.974 25.060 C 173.905 24.520,172.249 23.930,171.295 23.749 C 170.341 23.569,169.022 23.047,168.364 22.591 C 167.706 22.136,166.346 21.521,165.341 21.226 C 164.337 20.931,163.030 20.393,162.438 20.031 C 161.845 19.669,160.455 19.018,159.348 18.584 C 158.241 18.150,156.918 17.505,156.408 17.150 C 155.898 16.795,154.954 16.325,154.310 16.107 C 153.665 15.888,152.598 15.353,151.939 14.916 C 151.279 14.480,150.018 13.878,149.136 13.579 C 148.254 13.279,146.911 12.674,146.151 12.233 C 145.392 11.791,144.167 11.322,143.431 11.189 C 142.695 11.056,141.335 10.523,140.410 10.003 C 139.485 9.484,137.753 8.852,136.561 8.600 C 135.369 8.347,133.623 7.734,132.682 7.239 C 131.585 6.661,130.082 6.233,128.498 6.048 C 127.119 5.886,125.158 5.367,124.064 4.875 C 122.658 4.243,121.132 3.901,118.674 3.668 C 116.788 3.489,112.925 2.818,110.091 2.176 C 104.308 0.867,96.361 0.588,91.046 1.507 M93.222 90.917 C 91.197 91.170,87.582 91.519,85.188 91.693 C 81.798 91.940,80.209 92.229,77.992 93.004 C 76.427 93.551,74.017 94.103,72.636 94.231 C 70.792 94.403,69.508 94.766,67.803 95.600 C 66.427 96.273,64.971 96.736,64.232 96.736 C 63.459 96.736,62.175 97.166,60.858 97.864 C 59.689 98.485,58.208 99.106,57.567 99.245 C 56.926 99.383,55.652 99.875,54.736 100.337 C 53.819 100.798,52.269 101.452,51.292 101.788 C 50.314 102.124,49.105 102.690,48.606 103.045 C 48.107 103.400,46.915 103.923,45.957 104.208 C 44.999 104.492,43.643 105.115,42.944 105.591 C 42.246 106.068,41.089 106.617,40.373 106.811 C 39.658 107.004,38.524 107.527,37.852 107.971 C 37.180 108.416,35.851 109.011,34.899 109.294 C 33.946 109.577,33.075 109.956,32.964 110.137 C 32.590 110.742,30.795 111.487,28.862 111.841 C 27.808 112.033,26.192 112.617,25.272 113.137 C 24.264 113.706,22.800 114.181,21.592 114.329 C 20.489 114.464,18.305 115.013,16.739 115.549 C 14.550 116.297,12.884 116.595,9.540 116.834 C 3.910 117.237,3.205 117.344,1.459 118.062 L 0.003 118.661 0.001 136.447 L 0.000 154.234 1.444 154.450 C 5.182 155.011,11.812 154.503,14.867 153.423 C 15.619 153.156,17.891 152.779,19.916 152.584 C 22.659 152.319,24.191 151.979,25.922 151.249 C 27.199 150.709,29.383 150.113,30.775 149.923 C 32.397 149.701,33.906 149.244,34.979 148.651 C 35.900 148.141,37.522 147.554,38.585 147.345 C 39.648 147.136,41.204 146.562,42.044 146.070 C 42.885 145.578,44.268 145.045,45.119 144.886 C 45.971 144.727,47.200 144.228,47.852 143.776 C 48.504 143.325,49.663 142.736,50.428 142.467 C 51.192 142.198,52.399 141.592,53.110 141.122 C 53.821 140.651,55.105 140.055,55.964 139.797 C 56.822 139.538,57.950 139.029,58.469 138.664 C 58.989 138.299,60.017 137.809,60.753 137.573 C 61.490 137.338,63.071 136.659,64.268 136.065 C 65.464 135.470,66.820 134.872,67.280 134.736 C 67.741 134.600,68.796 134.061,69.626 133.537 C 70.457 133.014,71.812 132.487,72.639 132.365 C 73.466 132.244,75.066 131.705,76.195 131.168 C 77.324 130.631,79.433 129.979,80.881 129.719 C 82.330 129.460,84.494 128.845,85.690 128.352 C 90.428 126.404,108.251 126.481,113.643 128.473 C 115.117 129.017,117.426 129.634,118.775 129.843 C 120.146 130.056,122.064 130.649,123.124 131.187 C 124.167 131.717,125.613 132.253,126.337 132.378 C 127.062 132.503,128.677 133.121,129.927 133.751 C 131.178 134.380,132.418 134.895,132.684 134.895 C 132.949 134.895,134.120 135.399,135.286 136.014 C 136.452 136.629,137.933 137.234,138.577 137.359 C 139.222 137.484,140.355 138.020,141.096 138.551 C 141.838 139.081,143.043 139.683,143.774 139.887 C 144.506 140.092,145.696 140.709,146.419 141.259 C 147.143 141.809,147.971 142.260,148.260 142.261 C 148.550 142.262,149.976 142.864,151.429 143.600 C 152.883 144.335,154.330 144.937,154.646 144.937 C 154.961 144.937,156.080 145.396,157.131 145.957 C 158.182 146.518,159.890 147.134,160.928 147.325 C 161.965 147.517,163.649 148.093,164.671 148.605 C 165.692 149.117,167.543 149.711,168.785 149.924 C 170.027 150.137,172.136 150.743,173.471 151.269 C 175.063 151.897,176.858 152.306,178.683 152.456 C 180.214 152.582,183.226 153.129,185.378 153.670 C 189.254 154.645,189.374 154.654,198.996 154.659 C 208.519 154.665,210.565 154.501,214.015 153.457 C 214.959 153.172,217.540 152.731,219.749 152.479 C 222.670 152.144,224.292 151.777,225.693 151.130 C 226.752 150.642,228.628 150.099,229.862 149.924 C 231.209 149.733,232.710 149.251,233.624 148.716 C 234.490 148.208,236.214 147.639,237.628 147.393 C 239.102 147.136,240.615 146.628,241.350 146.141 C 242.031 145.691,243.248 145.149,244.055 144.936 C 244.863 144.724,246.050 144.196,246.695 143.763 C 247.339 143.330,248.823 142.731,249.993 142.432 C 251.162 142.133,252.669 141.525,253.340 141.081 C 254.011 140.637,255.088 140.092,255.732 139.869 C 256.377 139.646,257.600 139.038,258.451 138.516 C 259.303 137.995,260.508 137.391,261.129 137.175 C 261.751 136.958,262.904 136.373,263.692 135.874 C 264.479 135.375,265.684 134.863,266.369 134.738 C 267.055 134.612,268.293 134.078,269.121 133.551 C 270.022 132.978,271.453 132.460,272.679 132.263 C 273.807 132.081,275.562 131.489,276.579 130.947 C 277.644 130.378,279.259 129.857,280.386 129.717 C 281.462 129.584,283.096 129.120,284.017 128.686 C 288.773 126.445,308.313 126.314,313.742 128.488 C 315.087 129.026,317.173 129.621,318.378 129.808 C 319.584 129.996,321.492 130.615,322.619 131.183 C 323.745 131.752,324.951 132.218,325.299 132.218 C 325.646 132.218,326.818 132.680,327.903 133.244 C 328.987 133.809,330.752 134.487,331.824 134.752 C 332.896 135.017,334.278 135.619,334.894 136.089 C 335.510 136.559,336.591 137.100,337.296 137.291 C 338.001 137.482,339.082 138.020,339.699 138.486 C 340.316 138.952,341.470 139.528,342.262 139.767 C 343.055 140.005,344.287 140.587,345.001 141.059 C 345.715 141.531,347.066 142.146,348.004 142.424 C 348.942 142.703,350.373 143.301,351.184 143.755 C 351.994 144.208,353.440 144.746,354.396 144.951 C 355.351 145.156,356.679 145.694,357.345 146.146 C 358.011 146.598,359.408 147.167,360.450 147.410 C 361.491 147.653,363.128 148.251,364.088 148.737 C 365.056 149.228,366.915 149.776,368.263 149.967 C 369.599 150.156,371.524 150.694,372.542 151.162 C 373.821 151.749,375.584 152.153,378.243 152.467 C 380.360 152.717,382.493 153.074,382.982 153.261 C 386.111 154.454,394.722 155.164,396.237 154.353 C 397.627 153.609,397.680 152.872,397.583 135.667 L 397.490 119.217 396.683 118.358 C 395.722 117.336,395.240 117.242,388.954 116.854 C 384.843 116.600,383.796 116.419,382.110 115.672 C 381.015 115.187,379.169 114.656,378.006 114.491 C 376.844 114.327,374.878 113.731,373.637 113.169 C 372.396 112.606,370.659 111.990,369.777 111.800 C 368.894 111.611,367.614 111.095,366.932 110.655 C 366.249 110.215,364.807 109.605,363.728 109.300 C 362.648 108.995,361.217 108.384,360.548 107.941 C 359.878 107.498,358.803 106.954,358.159 106.731 C 357.515 106.508,356.291 105.900,355.440 105.378 C 354.589 104.857,353.384 104.255,352.762 104.041 C 352.140 103.827,351.105 103.311,350.460 102.895 C 349.816 102.479,348.432 101.919,347.384 101.650 C 346.336 101.382,345.023 100.837,344.465 100.440 C 343.907 100.042,342.615 99.500,341.594 99.234 C 340.573 98.968,339.015 98.384,338.132 97.937 C 337.249 97.489,335.567 96.949,334.393 96.736 C 333.220 96.524,331.511 95.970,330.595 95.506 C 329.614 95.009,327.682 94.474,325.888 94.204 C 324.214 93.951,321.715 93.349,320.335 92.866 C 318.555 92.242,316.704 91.906,313.975 91.708 C 311.858 91.556,309.523 91.350,308.787 91.251 C 302.710 90.437,298.950 90.331,294.353 90.846 C 291.753 91.136,287.604 91.519,285.132 91.696 C 281.550 91.952,280.099 92.214,277.976 92.990 C 276.512 93.525,274.425 94.063,273.339 94.187 C 272.253 94.310,270.229 94.866,268.841 95.421 C 267.453 95.977,265.631 96.522,264.791 96.632 C 263.951 96.743,262.415 97.257,261.377 97.774 C 260.339 98.292,258.758 98.895,257.862 99.114 C 256.967 99.333,255.270 100.017,254.092 100.635 C 252.913 101.252,251.700 101.757,251.396 101.757 C 251.091 101.757,250.163 102.188,249.332 102.715 C 248.501 103.242,247.229 103.866,246.505 104.102 C 245.781 104.337,244.586 104.951,243.849 105.465 C 243.113 105.979,241.892 106.560,241.135 106.756 C 240.379 106.953,238.748 107.640,237.512 108.285 C 236.276 108.929,235.037 109.456,234.758 109.456 C 234.479 109.456,233.308 109.983,232.156 110.628 C 231.004 111.272,229.643 111.799,229.131 111.799 C 228.620 111.799,227.040 112.323,225.621 112.964 C 224.202 113.605,222.071 114.267,220.884 114.435 C 219.698 114.602,217.770 115.143,216.600 115.635 C 211.099 117.951,189.127 117.878,181.904 115.521 C 180.258 114.984,178.084 114.436,177.071 114.303 C 176.059 114.170,174.366 113.627,173.310 113.095 C 172.254 112.564,170.597 111.963,169.628 111.761 C 168.659 111.558,167.113 110.976,166.192 110.468 C 165.272 109.959,163.992 109.445,163.347 109.325 C 162.703 109.206,161.569 108.675,160.828 108.144 C 160.087 107.613,158.882 107.012,158.150 106.807 C 157.419 106.603,156.228 105.985,155.505 105.435 C 154.782 104.885,153.944 104.435,153.642 104.435 C 153.341 104.435,151.909 103.833,150.460 103.096 C 149.012 102.360,147.576 101.757,147.269 101.757 C 146.963 101.757,145.748 101.250,144.569 100.631 C 143.391 100.011,141.824 99.396,141.088 99.264 C 140.351 99.132,138.973 98.583,138.026 98.043 C 137.078 97.503,135.421 96.907,134.344 96.719 C 133.266 96.531,131.406 95.940,130.209 95.406 C 128.771 94.765,127.183 94.360,125.523 94.213 C 124.020 94.079,122.286 93.666,121.203 93.182 C 119.126 92.255,116.933 91.897,110.126 91.376 C 107.456 91.171,104.264 90.863,103.032 90.690 C 100.173 90.290,97.815 90.344,93.222 90.917 M91.548 179.752 C 86.415 180.019,83.572 180.449,80.502 181.420 C 79.397 181.770,77.265 182.197,75.764 182.370 C 74.061 182.565,72.297 183.024,71.077 183.589 C 70.002 184.086,68.156 184.634,66.975 184.805 C 65.720 184.988,64.123 185.515,63.126 186.076 C 62.189 186.604,60.669 187.141,59.749 187.270 C 58.828 187.400,57.263 187.968,56.270 188.533 C 55.276 189.098,53.776 189.689,52.936 189.846 C 52.096 190.003,50.875 190.501,50.223 190.952 C 49.571 191.403,48.433 191.985,47.694 192.245 C 46.955 192.505,45.608 193.189,44.700 193.765 C 43.792 194.341,42.800 194.812,42.495 194.812 C 42.191 194.812,41.279 195.265,40.469 195.818 C 39.659 196.372,38.167 197.065,37.155 197.359 C 36.142 197.652,34.711 198.238,33.975 198.659 C 33.238 199.080,31.824 199.665,30.831 199.960 C 29.838 200.254,28.395 200.864,27.624 201.316 C 26.853 201.768,25.406 202.239,24.408 202.362 C 23.410 202.486,21.464 203.079,20.084 203.681 C 18.115 204.539,16.939 204.817,14.637 204.966 C 11.395 205.177,5.046 206.273,2.633 207.039 C 1.780 207.310,0.838 207.531,0.541 207.531 C 0.050 207.531,-0.000 209.157,-0.000 225.229 L -0.000 242.926 2.062 243.159 C 6.578 243.670,15.469 242.852,19.916 241.516 C 21.389 241.073,23.740 240.572,25.140 240.402 C 26.585 240.227,28.519 239.712,29.613 239.211 C 30.673 238.726,32.446 238.183,33.553 238.005 C 34.660 237.826,36.413 237.242,37.448 236.706 C 38.484 236.169,39.829 235.623,40.438 235.491 C 41.048 235.360,42.657 234.739,44.015 234.111 C 45.372 233.484,46.707 232.971,46.980 232.971 C 47.252 232.971,48.433 232.463,49.602 231.843 C 50.771 231.222,52.252 230.606,52.893 230.472 C 53.534 230.339,54.601 229.863,55.263 229.414 C 55.925 228.966,57.263 228.308,58.234 227.953 C 59.206 227.598,60.267 227.067,60.591 226.774 C 60.915 226.480,61.933 225.954,62.853 225.605 C 63.773 225.255,65.078 224.594,65.753 224.137 C 66.427 223.679,67.823 223.129,68.854 222.915 C 69.885 222.701,71.422 222.102,72.268 221.583 C 73.115 221.065,74.410 220.542,75.146 220.422 C 75.883 220.302,77.464 219.770,78.661 219.240 C 79.975 218.657,82.163 218.077,84.184 217.774 C 86.025 217.498,88.510 216.940,89.707 216.533 C 93.901 215.108,106.767 215.316,110.718 216.874 C 111.604 217.222,113.551 217.656,115.045 217.836 C 116.810 218.050,118.506 218.514,119.885 219.162 C 121.053 219.711,122.757 220.270,123.673 220.404 C 124.588 220.539,126.170 221.077,127.188 221.600 C 128.205 222.123,129.640 222.656,130.377 222.784 C 131.937 223.055,132.789 223.441,133.741 224.306 C 134.119 224.649,135.143 225.144,136.016 225.407 C 136.889 225.670,138.103 226.266,138.714 226.732 C 139.325 227.198,140.260 227.683,140.791 227.810 C 141.323 227.937,142.676 228.547,143.798 229.167 C 144.920 229.786,146.077 230.293,146.368 230.293 C 146.659 230.293,147.911 230.821,149.150 231.467 C 150.389 232.113,152.126 232.856,153.010 233.119 C 153.894 233.381,155.263 233.966,156.053 234.417 C 156.843 234.869,158.083 235.343,158.808 235.471 C 159.533 235.598,160.986 236.136,162.036 236.667 C 163.087 237.197,164.855 237.777,165.966 237.956 C 167.078 238.135,169.023 238.736,170.290 239.292 C 171.702 239.912,173.491 240.392,174.915 240.533 C 176.193 240.660,178.669 241.201,180.418 241.735 C 182.996 242.523,184.614 242.767,188.954 243.025 C 191.900 243.200,194.955 243.438,195.744 243.553 C 199.825 244.147,216.114 242.801,218.806 241.647 C 219.678 241.274,221.941 240.764,223.836 240.516 C 226.339 240.187,227.680 239.829,228.739 239.209 C 229.549 238.734,231.218 238.191,232.496 237.987 C 233.828 237.774,235.502 237.220,236.477 236.669 C 237.402 236.145,238.944 235.613,239.904 235.486 C 240.964 235.345,242.226 234.872,243.119 234.280 C 243.928 233.745,245.389 233.155,246.366 232.970 C 247.343 232.784,248.607 232.281,249.176 231.852 C 249.744 231.423,250.921 230.831,251.791 230.538 C 252.662 230.244,253.867 229.636,254.469 229.186 C 255.072 228.736,256.167 228.179,256.904 227.950 C 257.640 227.720,258.707 227.186,259.275 226.762 C 259.842 226.339,261.198 225.736,262.287 225.423 C 263.377 225.109,264.870 224.508,265.607 224.086 C 266.343 223.664,267.623 223.142,268.452 222.926 C 269.280 222.711,270.714 222.105,271.638 221.580 C 272.562 221.055,274.252 220.475,275.393 220.291 C 276.535 220.107,278.156 219.554,278.997 219.061 C 280.101 218.414,281.287 218.082,283.275 217.864 C 284.788 217.698,287.381 217.150,289.038 216.647 C 293.581 215.268,305.590 215.272,309.958 216.654 C 311.523 217.150,313.973 217.708,315.404 217.896 C 316.952 218.100,318.695 218.588,319.713 219.104 C 320.653 219.580,322.467 220.187,323.744 220.454 C 325.021 220.720,326.621 221.299,327.301 221.741 C 327.980 222.183,329.196 222.717,330.003 222.929 C 330.810 223.141,332.037 223.688,332.729 224.146 C 333.421 224.604,334.773 225.186,335.732 225.439 C 336.692 225.692,338.026 226.258,338.697 226.696 C 339.368 227.134,340.585 227.756,341.403 228.079 C 342.221 228.401,343.303 228.959,343.808 229.319 C 344.313 229.678,345.313 230.179,346.030 230.432 C 346.747 230.686,348.151 231.346,349.148 231.900 C 350.146 232.454,351.490 233.011,352.134 233.139 C 352.778 233.267,353.951 233.743,354.741 234.197 C 355.530 234.651,357.013 235.240,358.035 235.506 C 359.057 235.773,360.529 236.363,361.306 236.818 C 362.186 237.334,363.688 237.781,365.293 238.004 C 366.771 238.210,368.758 238.778,369.959 239.338 C 371.359 239.991,372.990 240.421,374.895 240.638 C 376.460 240.817,378.788 241.359,380.069 241.843 C 382.943 242.930,394.199 243.752,395.999 243.006 C 397.641 242.326,397.703 241.600,397.592 224.386 C 397.477 206.695,397.606 207.570,395.008 206.865 C 392.916 206.297,386.538 205.220,383.933 204.993 C 382.283 204.850,380.641 204.437,379.143 203.789 C 377.890 203.247,376.024 202.667,374.997 202.500 C 373.970 202.333,372.285 201.758,371.251 201.223 C 370.218 200.688,368.593 200.085,367.641 199.883 C 366.689 199.681,365.191 199.060,364.312 198.503 C 363.433 197.946,362.472 197.490,362.176 197.490 C 361.880 197.490,360.894 197.018,359.987 196.443 C 359.079 195.867,357.794 195.205,357.132 194.971 C 356.471 194.738,355.101 194.079,354.088 193.508 C 353.076 192.936,352.018 192.469,351.737 192.469 C 351.456 192.469,350.038 191.867,348.584 191.131 C 347.131 190.396,345.690 189.793,345.383 189.792 C 345.077 189.791,343.872 189.287,342.706 188.672 C 341.540 188.057,340.011 187.462,339.310 187.351 C 338.608 187.239,337.101 186.696,335.962 186.144 C 334.823 185.591,332.987 184.993,331.883 184.815 C 330.778 184.637,328.745 184.044,327.364 183.498 C 325.753 182.861,323.910 182.425,322.222 182.281 C 320.774 182.158,318.436 181.693,317.026 181.248 C 309.747 178.948,289.148 178.967,281.827 181.280 C 280.411 181.727,278.065 182.187,276.614 182.302 C 274.825 182.443,273.268 182.815,271.782 183.456 C 270.576 183.976,268.564 184.565,267.312 184.765 C 266.060 184.965,264.295 185.503,263.391 185.962 C 262.487 186.420,260.808 187.030,259.660 187.317 C 258.512 187.604,257.029 188.191,256.363 188.622 C 255.697 189.053,254.492 189.580,253.685 189.793 C 252.878 190.006,251.615 190.525,250.879 190.947 C 250.142 191.369,249.163 191.816,248.703 191.942 C 248.243 192.067,245.381 193.382,242.343 194.864 C 239.305 196.346,235.766 198.071,234.477 198.696 C 233.188 199.321,231.852 199.833,231.507 199.833 C 231.162 199.833,229.728 200.352,228.321 200.988 C 226.914 201.623,225.087 202.244,224.262 202.368 C 223.437 202.492,221.713 203.046,220.431 203.599 C 218.638 204.373,217.134 204.710,213.904 205.060 C 211.596 205.310,208.653 205.742,207.364 206.021 C 204.304 206.682,194.521 206.702,191.461 206.054 C 190.263 205.800,187.778 205.421,185.938 205.212 C 184.099 205.003,182.095 204.769,181.485 204.693 C 180.875 204.617,179.444 204.107,178.305 203.562 C 177.166 203.016,175.406 202.462,174.393 202.332 C 173.381 202.202,171.720 201.676,170.703 201.164 C 169.686 200.652,168.179 200.055,167.356 199.836 C 166.532 199.617,165.105 199.017,164.184 198.504 C 163.264 197.990,161.963 197.395,161.293 197.181 C 160.624 196.968,158.214 195.844,155.938 194.683 C 153.662 193.522,151.299 192.475,150.687 192.357 C 150.076 192.238,148.946 191.690,148.177 191.140 C 147.408 190.589,146.251 190.038,145.607 189.915 C 144.962 189.793,143.456 189.208,142.259 188.616 C 141.063 188.024,139.481 187.434,138.745 187.305 C 138.008 187.176,136.547 186.628,135.496 186.088 C 134.446 185.548,132.639 184.968,131.480 184.800 C 130.321 184.632,128.318 184.045,127.029 183.496 C 125.549 182.865,123.762 182.409,122.176 182.256 C 120.795 182.123,118.393 181.647,116.838 181.199 C 112.034 179.813,101.715 179.223,91.548 179.752 M91.667 267.796 C 87.337 268.022,86.005 268.220,83.969 268.942 C 82.614 269.422,79.883 270.036,77.898 270.305 C 75.532 270.625,73.739 271.073,72.689 271.605 C 71.808 272.051,70.127 272.591,68.954 272.803 C 67.781 273.016,66.122 273.544,65.269 273.976 C 64.416 274.409,62.750 275.012,61.566 275.317 C 60.383 275.621,58.643 276.310,57.700 276.848 C 56.757 277.385,55.763 277.824,55.491 277.824 C 55.219 277.824,54.032 278.329,52.854 278.947 C 51.675 279.564,49.958 280.252,49.038 280.476 C 48.117 280.700,46.686 281.308,45.858 281.828 C 45.029 282.348,43.975 282.881,43.515 283.013 C 43.054 283.144,41.994 283.683,41.157 284.210 C 40.321 284.738,39.018 285.387,38.261 285.654 C 37.504 285.921,36.306 286.515,35.598 286.973 C 34.889 287.431,33.671 287.908,32.891 288.032 C 32.112 288.156,30.917 288.636,30.238 289.097 C 29.558 289.558,27.938 290.157,26.639 290.428 C 25.339 290.699,23.521 291.346,22.598 291.865 C 21.381 292.550,20.235 292.873,18.420 293.043 C 17.044 293.171,14.785 293.645,13.399 294.094 C 10.825 294.929,1.530 296.080,0.513 295.690 C 0.056 295.515,-0.000 297.468,-0.000 313.604 C -0.000 330.626,0.035 331.716,0.586 331.726 C 0.908 331.732,1.464 331.958,1.821 332.228 C 2.682 332.879,4.010 332.848,8.666 332.069 C 10.803 331.711,14.360 331.269,16.569 331.086 C 19.670 330.829,21.036 330.554,22.562 329.877 C 23.727 329.360,25.716 328.857,27.411 328.649 C 29.370 328.410,30.886 327.994,32.178 327.342 C 33.219 326.816,34.954 326.243,36.032 326.068 C 37.110 325.892,38.873 325.284,39.950 324.716 C 41.028 324.147,42.218 323.682,42.596 323.682 C 42.974 323.682,44.201 323.176,45.323 322.558 C 46.446 321.939,48.117 321.251,49.038 321.029 C 49.958 320.806,51.389 320.199,52.218 319.681 C 53.046 319.162,54.279 318.561,54.958 318.346 C 55.637 318.130,56.569 317.658,57.028 317.296 C 57.488 316.934,58.508 316.411,59.294 316.134 C 60.081 315.856,61.409 315.193,62.245 314.660 C 63.081 314.128,64.326 313.589,65.011 313.463 C 65.696 313.337,66.901 312.826,67.689 312.326 C 68.477 311.827,69.855 311.234,70.752 311.008 C 71.649 310.782,73.116 310.226,74.012 309.772 C 74.908 309.318,76.660 308.732,77.904 308.469 C 79.149 308.207,81.040 307.592,82.106 307.103 C 83.531 306.450,84.932 306.137,87.385 305.924 C 89.222 305.764,91.588 305.487,92.643 305.307 C 96.100 304.718,99.867 304.566,102.762 304.897 C 104.326 305.077,107.791 305.464,110.460 305.759 C 114.353 306.188,115.715 306.482,117.342 307.242 C 118.457 307.763,120.108 308.300,121.011 308.435 C 121.914 308.571,123.530 309.124,124.602 309.666 C 125.674 310.207,127.333 310.798,128.289 310.979 C 129.244 311.160,130.573 311.670,131.241 312.112 C 131.909 312.554,133.193 313.140,134.094 313.414 C 134.995 313.688,138.745 315.445,142.427 317.317 C 146.109 319.189,149.931 320.938,150.920 321.204 C 151.909 321.469,153.160 322.002,153.701 322.387 C 154.242 322.772,155.538 323.309,156.581 323.582 C 157.624 323.854,159.084 324.429,159.825 324.859 C 160.565 325.290,162.140 325.815,163.324 326.026 C 164.508 326.238,166.315 326.833,167.341 327.349 C 168.511 327.937,170.204 328.419,171.887 328.644 C 173.362 328.841,175.413 329.388,176.445 329.861 C 177.924 330.538,179.200 330.789,182.466 331.045 C 184.746 331.224,188.343 331.679,190.460 332.055 C 197.793 333.358,200.482 333.331,209.540 331.866 C 211.105 331.613,214.141 331.257,216.288 331.076 C 219.168 330.832,220.725 330.520,222.227 329.888 C 223.346 329.417,225.421 328.871,226.837 328.674 C 228.374 328.460,230.163 327.939,231.275 327.382 C 232.300 326.869,234.077 326.286,235.224 326.088 C 236.371 325.889,237.987 325.329,238.816 324.843 C 239.645 324.357,241.242 323.746,242.366 323.483 C 243.490 323.221,245.041 322.636,245.814 322.184 C 246.587 321.731,247.848 321.138,248.618 320.867 C 249.387 320.595,250.443 320.058,250.965 319.672 C 251.486 319.287,252.685 318.768,253.629 318.519 C 254.572 318.270,255.846 317.687,256.459 317.223 C 257.072 316.759,258.176 316.218,258.912 316.021 C 259.649 315.824,260.789 315.296,261.445 314.848 C 262.102 314.400,263.241 313.872,263.976 313.674 C 264.710 313.476,265.980 312.873,266.798 312.334 C 267.618 311.794,269.138 311.199,270.186 311.007 C 271.232 310.815,272.928 310.211,273.955 309.663 C 275.027 309.091,276.639 308.567,277.743 308.432 C 278.800 308.303,280.569 307.743,281.674 307.189 C 283.371 306.337,284.251 306.140,287.364 305.918 C 289.389 305.774,291.874 305.465,292.887 305.232 C 295.530 304.625,302.764 304.683,307.448 305.350 C 309.657 305.664,312.328 306.012,313.383 306.122 C 314.444 306.233,316.012 306.700,316.889 307.167 C 317.762 307.631,319.582 308.222,320.933 308.481 C 322.285 308.739,324.021 309.316,324.791 309.762 C 325.562 310.208,326.864 310.750,327.684 310.967 C 329.056 311.328,331.200 312.303,335.565 314.547 C 336.485 315.020,338.067 315.692,339.079 316.041 C 340.091 316.389,341.473 317.040,342.148 317.487 C 342.824 317.934,343.803 318.399,344.324 318.520 C 344.846 318.641,346.176 319.229,347.280 319.827 C 348.385 320.425,349.715 321.015,350.236 321.139 C 350.757 321.264,351.760 321.746,352.464 322.212 C 353.168 322.678,354.597 323.282,355.638 323.554 C 356.680 323.826,358.389 324.475,359.436 324.997 C 360.483 325.518,361.961 326.037,362.720 326.149 C 363.480 326.262,365.159 326.804,366.451 327.354 C 367.743 327.904,369.682 328.453,370.760 328.574 C 371.838 328.695,374.351 329.301,376.345 329.920 C 378.339 330.539,380.523 331.047,381.199 331.049 C 382.657 331.053,388.803 331.820,392.211 332.425 C 395.201 332.955,396.264 332.653,397.071 331.042 C 397.902 329.383,397.973 298.486,397.149 296.892 C 396.566 295.765,396.468 295.737,391.297 295.215 C 389.180 295.002,386.393 294.486,385.105 294.069 C 383.816 293.652,381.761 293.206,380.539 293.076 C 379.204 292.935,377.504 292.457,376.281 291.879 C 375.161 291.349,373.421 290.764,372.415 290.578 C 371.408 290.392,369.710 289.801,368.640 289.266 C 367.570 288.731,366.092 288.098,365.356 287.861 C 364.619 287.623,363.490 287.098,362.845 286.695 C 362.201 286.291,361.071 285.770,360.335 285.536 C 359.598 285.303,358.318 284.692,357.490 284.180 C 356.661 283.667,355.456 283.139,354.812 283.007 C 354.167 282.875,352.809 282.258,351.793 281.635 C 350.776 281.012,349.714 280.502,349.431 280.502 C 349.149 280.502,348.173 280.028,347.262 279.448 C 346.352 278.868,344.829 278.189,343.877 277.938 C 342.926 277.688,341.292 277.033,340.245 276.482 C 339.198 275.932,337.928 275.481,337.422 275.481 C 336.916 275.481,335.511 274.955,334.298 274.311 C 332.947 273.594,331.276 273.023,329.980 272.834 C 328.817 272.665,326.999 272.126,325.938 271.635 C 324.723 271.073,322.806 270.582,320.750 270.308 C 318.957 270.068,316.687 269.551,315.707 269.157 C 310.301 266.987,288.233 267.174,282.107 269.441 C 281.132 269.801,279.096 270.249,277.583 270.435 C 275.899 270.642,274.202 271.092,273.211 271.595 C 272.319 272.047,270.630 272.591,269.456 272.803 C 268.283 273.016,266.619 273.547,265.759 273.983 C 264.898 274.419,263.183 275.010,261.946 275.297 C 260.709 275.584,259.068 276.182,258.300 276.625 C 257.532 277.069,256.129 277.658,255.183 277.934 C 254.236 278.210,252.881 278.814,252.170 279.277 C 251.460 279.739,250.232 280.287,249.441 280.494 C 248.650 280.701,247.303 281.315,246.447 281.858 C 245.590 282.401,244.612 282.845,244.273 282.845 C 243.573 282.845,241.151 284.011,240.855 284.490 C 240.748 284.663,240.097 284.983,239.410 285.201 C 238.722 285.419,237.481 285.994,236.653 286.479 C 235.824 286.964,234.318 287.684,233.305 288.080 C 232.293 288.476,230.561 289.189,229.456 289.664 C 228.351 290.139,227.015 290.532,226.486 290.536 C 225.957 290.540,224.375 291.059,222.971 291.687 C 221.209 292.477,219.535 292.937,217.566 293.172 C 215.996 293.360,213.511 293.912,212.043 294.400 C 207.074 296.048,189.928 295.935,185.944 294.227 C 185.099 293.865,183.021 293.398,181.325 293.190 C 179.216 292.930,177.450 292.464,175.732 291.713 C 174.351 291.110,172.469 290.512,171.548 290.386 C 170.628 290.259,169.197 289.731,168.368 289.212 C 167.540 288.693,166.335 288.167,165.690 288.043 C 165.046 287.919,163.464 287.306,162.176 286.681 C 160.887 286.056,159.155 285.247,158.326 284.884 C 157.498 284.521,156.444 283.996,155.983 283.718 C 155.523 283.439,154.469 282.912,153.640 282.546 C 152.812 282.180,151.757 281.658,151.297 281.387 C 149.403 280.268,144.691 278.182,143.598 277.978 C 142.954 277.859,141.633 277.320,140.663 276.782 C 139.693 276.243,137.934 275.601,136.754 275.353 C 135.574 275.106,133.958 274.523,133.162 274.058 C 132.355 273.587,130.706 273.057,129.434 272.859 C 128.096 272.652,126.513 272.132,125.609 271.602 C 124.433 270.913,123.355 270.627,121.071 270.398 C 119.280 270.218,117.255 269.764,116.034 269.268 C 112.648 267.892,102.073 267.253,91.667 267.796 " stroke="none" fill="#14ecec" fill-rule="evenodd"></path></g></svg>